Coordinates
datacolumns 6
datarows 139
range 0 1.38
inDegrees=yes
Units are S.I. units (second, meters, Newtons, ...)
If the header above contains a line with 'inDegrees', this indicates whether rotational values are in degrees (yes) or radians (no).
endheader
time	foot_tx	hip_flexion_r	knee_angle_r	ankle_angle_r	lumbar
0	0.26545521	65.37002549	-67.17695638	3.24702199	-11.19943959
0.01	0.26546567	65.43988592	-67.16069067	3.23426586	-11.2797047
0.02	0.26545365	65.43374549	-67.14792266	3.22980885	-11.46300088
0.03	0.26545259	65.46795349	-67.13068777	3.21894119	-11.61385441
0.04	0.26544969	65.5021262	-67.11175719	3.2068778	-11.78047165
0.05	0.26544713	65.53797604	-67.09165673	3.19378441	-11.96097081
0.06	0.26544183	65.57455657	-67.06999105	3.17967106	-12.15755695
0.07	0.26543476	65.61265734	-67.04648727	3.1642465	-12.37007267
0.08	0.2654256	65.65380269	-67.02107871	3.14734333	-12.59748753
0.09	0.26541678	65.70038238	-66.99253122	3.12781224	-12.83780949
0.1	0.2654012	65.75415778	-66.96279112	3.10714192	-13.08905876
0.11	0.2653833	65.8159686	-66.92876832	3.08303554	-13.35074993
0.12	0.26536186	65.88861489	-66.89077822	3.05573747	-13.61901339
0.13	0.26533751	65.97388564	-66.84845942	3.02519406	-13.8912636
0.14	0.26530777	66.07333076	-66.80328386	2.99240066	-14.16511654
0.15	0.26527689	66.19084555	-66.75398533	2.95670649	-14.43555314
0.16	0.26524208	66.32164871	-66.70495548	2.9217867	-14.70707273
0.17	0.26520731	66.46962602	-66.65598836	2.88750641	-14.9742592
0.18	0.26517923	66.68256302	-66.61022497	2.85293733	-15.179559
0.19	0.265129	66.79895579	-66.57501091	2.83610127	-15.51086681
0.2	0.26509059	66.98370221	-66.54453787	2.82041353	-15.77525804
0.21	0.26505486	67.2181354	-66.51915224	2.80815758	-15.99566253
0.22	0.26501072	67.4074393	-66.50056864	2.80770076	-16.28346046
0.23	0.26497418	67.66534414	-66.48374295	2.80725556	-16.50785183
0.24	0.26493411	67.93447604	-66.47039779	2.81273863	-16.73741537
0.25	0.26489663	68.21923416	-66.46100586	2.82396228	-16.9677894
0.26	0.26485627	68.57447749	-66.45811181	2.83925527	-17.13605027
0.27	0.26482299	68.93775858	-66.45943218	2.86105454	-17.3168463
0.28	0.26477393	69.33543212	-66.47279379	2.89385168	-17.4796385
0.29	0.26473002	69.76772874	-66.48788109	2.9300105	-17.62903568
0.3	0.26467389	70.25116972	-66.50965546	2.97235106	-17.74779404
0.31	0.2646298	70.77283208	-66.52586112	3.01261233	-17.8567164
0.32	0.26457141	71.35481726	-66.54630474	3.05713876	-17.93203211
0.33	0.26450834	71.98709608	-66.56945502	3.10515181	-17.98841887
0.34	0.26444377	72.6680424	-66.5950754	3.15662855	-18.03039372
0.35	0.26437159	73.39392231	-66.62415631	3.21322606	-18.06362129
0.36	0.26430413	74.15745689	-66.65371649	3.27367307	-18.09512083
0.37	0.26421093	74.9577696	-66.69184585	3.34634324	-18.11982602
0.38	0.26412023	75.77651141	-66.72600002	3.42465402	-18.1549681
0.39	0.26399812	76.62692737	-66.77222636	3.52168637	-18.17528924
0.4	0.26386037	77.50434381	-66.82635838	3.6358455	-18.18281261
0.41	0.26369788	78.4105965	-66.89688693	3.77416235	-18.16943927
0.42	0.2635219	79.36174511	-66.98080104	3.93449367	-18.11233391
0.43	0.26333882	80.36017674	-67.07617588	4.11601973	-18.00305246
0.44	0.26315728	81.41618649	-67.17461289	4.31345776	-17.82373713
0.45	0.26298565	82.53457218	-67.26615869	4.52124926	-17.56174003
0.46	0.26283547	83.69838393	-67.34601422	4.73837924	-17.22909124
0.47	0.26271252	84.8873899	-67.41428666	4.96750631	-16.84173473
0.48	0.26262676	86.06745211	-67.47547924	5.21345575	-16.43566374
0.49	0.26258477	87.22330216	-67.53248465	5.47775761	-16.02758204
0.5	0.26258647	88.34242466	-67.58760858	5.76172975	-15.63203454
0.51	0.2626296	89.41440826	-67.64332189	6.06526637	-15.2604199
0.52	0.26271066	90.42924187	-67.70076293	6.38665954	-14.92224009
0.53	0.2628252	91.38397767	-67.7610681	6.72311701	-14.61713269
0.54	0.26296191	92.26471033	-67.82758332	7.07379836	-14.3577731
0.55	0.2631107	93.06202538	-67.9035933	7.43761263	-14.1506735
0.56	0.26326246	93.7706594	-67.99130867	7.81277639	-13.99645003
0.57	0.26341177	94.38516152	-68.09357314	8.19816983	-13.89468354
0.58	0.2635561	94.89950546	-68.21217343	8.59300336	-13.84377006
0.59	0.26369858	95.30769431	-68.34871111	8.99712718	-13.84140911
0.6	0.26384388	95.60913647	-68.5010856	9.4092785	-13.87792294
0.61	0.26399278	95.78877898	-68.66762748	9.83042221	-13.96248694
0.62	0.26415755	95.90858054	-68.83441332	10.25010181	-14.00998969
0.63	0.26433024	95.90668174	-68.99805934	10.67187318	-14.09573557
0.64	0.2645209	95.84116304	-69.14425404	11.08594158	-14.14745723
0.65	0.26472536	95.71355158	-69.26343511	11.48876227	-14.16689176
0.66	0.26493973	95.53493003	-69.34957346	11.87790292	-14.14516065
0.67	0.26515781	95.30345437	-69.39800273	12.2523596	-14.08993018
0.68	0.26537727	95.01591409	-69.4059462	12.61178927	-14.01082561
0.69	0.26559518	94.66835474	-69.37295519	12.95706264	-13.91878687
0.7	0.26581195	94.26121396	-69.29770979	13.28757307	-13.82005367
0.71	0.26602692	93.79380407	-69.17847455	13.60218139	-13.72255609
0.72	0.26624501	93.26798459	-69.01304853	13.89818518	-13.63092408
0.73	0.26645937	92.67779821	-68.80067209	14.17530024	-13.55844137
0.74	0.26667181	92.0318344	-68.54427902	14.43336528	-13.49827915
0.75	0.26687713	91.32348721	-68.24756736	14.67366451	-13.46185037
0.76	0.26707992	90.56695532	-67.9122558	14.89465305	-13.43427723
0.77	0.2672723	89.76579515	-67.54463429	15.09943878	-13.41315747
0.78	0.26745556	88.92927852	-67.14748181	15.28849248	-13.38987763
0.79	0.26762875	88.06336146	-66.72296027	15.46253552	-13.35986599
0.8	0.26779097	87.17666239	-66.27255714	15.62191663	-13.3142577
0.81	0.26794282	86.27313849	-65.79825996	15.76762095	-13.24812188
0.82	0.26808855	85.35904021	-65.30139366	15.89990123	-13.15235578
0.83	0.26823819	84.43335938	-64.78416776	16.01937498	-13.0259877
0.84	0.26839673	83.50408949	-64.24695822	16.12525758	-12.8591718
0.85	0.2685738	82.55650947	-63.69352502	16.21934105	-12.67048108
0.86	0.26876504	81.58593178	-63.12657825	16.30334806	-12.4702791
0.87	0.2689674	80.59034404	-62.54716879	16.37759818	-12.26720553
0.88	0.2691709	79.5628398	-61.95701177	16.44387031	-12.0764351
0.89	0.26937251	78.50760176	-61.35492274	16.50106063	-11.89873166
0.9	0.26957242	77.43289477	-60.73967877	16.54782905	-11.72824026
0.91	0.26977119	76.33815043	-60.11124409	16.58422235	-11.56872455
0.92	0.26997346	75.23256498	-59.46851506	16.60875442	-11.41195424
0.93	0.27017868	74.11469409	-58.81201373	16.62199374	-11.26235859
0.94	0.27038717	72.98650811	-58.14106575	16.62335442	-11.12028876
0.95	0.27059746	71.84823677	-57.4552035	16.6127354	-10.98755085
0.96	0.27080814	70.70062037	-56.75355233	16.58986906	-10.86389842
0.97	0.27101847	69.54490755	-56.0349289	16.55433741	-10.74582409
0.98	0.27122844	68.3827065	-55.2976731	16.5055211	-10.62623755
0.99	0.27143857	67.21536021	-54.53944346	16.44259687	-10.49637024
1	0.27164995	66.04316912	-53.75744553	16.36457141	-10.3491457
1.01	0.27186179	64.85984178	-52.95002517	16.27158682	-10.18750487
1.02	0.27208344	63.6738046	-52.11188338	16.15946235	-9.99996233
1.03	0.27231351	62.47359013	-51.24266797	16.02915888	-9.79923354
1.04	0.27255615	61.25504633	-50.3404915	15.87953955	-9.59086333
1.05	0.27281751	60.01965783	-49.40332637	15.70876405	-9.37466157
1.06	0.27309601	58.75686433	-48.4330603	15.51869396	-9.16620904
1.07	0.27339307	57.47533887	-47.43137176	15.30945191	-8.96071584
1.08	0.27370444	56.17894006	-46.40216873	15.08322003	-8.76068417
1.09	0.27402023	54.86978618	-45.349762	14.84306098	-8.56653114
1.1	0.27433846	53.56367701	-44.27802131	14.59004625	-8.36427056
1.11	0.27464288	52.25476074	-43.19530858	14.33042368	-8.1602553
1.12	0.27492572	50.95085452	-42.10906384	14.0686967	-7.94484394
1.13	0.2751782	49.65019132	-41.02786816	13.8112186	-7.71863273
1.14	0.27539749	48.34833554	-39.95826113	13.56301026	-7.48590071
1.15	0.27558833	47.03944095	-38.90146301	13.32494103	-7.2545749
1.16	0.27576025	45.71328064	-37.85221495	13.09264003	-7.04176846
1.17	0.27593514	44.37170275	-36.79325698	12.85073704	-6.85507157
1.18	0.27611524	42.99334591	-35.715251	12.59191931	-6.72673041
1.19	0.27630424	41.58303797	-34.61282762	12.31163457	-6.65045275
1.2	0.27650992	40.1698944	-33.48253158	12.00627109	-6.58626789
1.21	0.27672296	38.75994409	-32.33013645	11.68133093	-6.5203742
1.22	0.27693698	37.36593366	-31.16202769	11.34219299	-6.43316983
1.23	0.27714748	35.9932482	-29.98394576	10.9934611	-6.31786078
1.24	0.27734771	34.64747855	-28.80274483	10.64008108	-6.16905372
1.25	0.27753073	33.34340752	-27.62974701	10.29058803	-5.96811612
1.26	0.27768846	32.09729918	-26.47740381	9.95493987	-5.69220396
1.27	0.27781816	30.91674219	-25.35279232	9.63835457	-5.33265596
1.28	0.27792258	29.78975364	-24.25456019	9.33792018	-4.9134951
1.29	0.27802632	28.7056215	-23.16832673	9.03638326	-4.47131972
1.3	0.2781437	27.63707036	-22.08467286	8.71900813	-4.06990535
1.31	0.27829189	26.58614006	-20.99904786	8.37400295	-3.73405003
1.32	0.27845706	25.55051368	-19.92397103	8.0083801	-3.47531694
1.33	0.27862072	24.5483843	-18.87691151	7.63761909	-3.26108311
1.34	0.27876108	23.59245411	-17.87310317	7.28011555	-3.05102237
1.35	0.27886539	22.68697929	-16.92024986	6.94866405	-2.81611445
1.36	0.27893187	21.83423227	-16.01897292	6.64762009	-2.54145908
1.37	0.27896395	21.02729749	-15.16774873	6.37713572	-2.23197261
1.38	0.27896889	20.26930258	-14.36469924	6.13448289	-1.88818785
